<?xml version="1.0" encoding="utf-8"?>
<!-- Generator: Adobe Illustrator 17.1.0, SVG Export Plug-In . SVG Version: 6.00 Build 0)  -->
<!DOCTYPE svg PUBLIC "-//W3C//DTD SVG 1.1//EN" "http://www.w3.org/Graphics/SVG/1.1/DTD/svg11.dtd">
<svg version="1.1" id="Layer_1" xmlns="http://www.w3.org/2000/svg" xmlns:xlink="http://www.w3.org/1999/xlink" x="0px" y="0px"
	 viewBox="0 0 118.7 221.8" enable-background="new 0 0 118.7 221.8" xml:space="preserve">
<g>
	<path fill="#FFFFFF" d="M59.3,173.8c-32.5,0-59-26.4-59-59c0-2.7,2.2-5,5-5s5,2.2,5,5c0,27,22,49,49,49s49-22,49-49
		c0-2.7,2.2-5,5-5s5,2.2,5,5C118.3,147.3,91.8,173.8,59.3,173.8z"/>
</g>
<path fill="#FFFFFF" d="M59,1.5c-22.5,0-40.7,18.3-40.7,40.7v71.5c0,22.5,18.3,40.7,40.7,40.7s40.7-18.3,40.7-40.7V42.3
	C99.7,19.8,81.5,1.5,59,1.5z M59,144.6c-17,0-30.8-13.8-30.8-30.8V42.3c0-17,13.8-30.8,30.8-30.8s30.8,13.8,30.8,30.8v71.5
	C89.8,130.8,76,144.6,59,144.6z"/>
<g>
	<g>
		<g>
			<rect x="45.3" y="168.8" fill="#FFFFFF" width="10" height="42"/>
		</g>
		<g>
			<rect x="63.3" y="167.8" fill="#FFFFFF" width="10" height="43"/>
		</g>
	</g>
	<g>
		<path fill="#FFFFFF" d="M82.9,220.8H35.2c-2.7,0-5-2.3-5-5s2.2-5,5-5h47.7c2.7,0,5,2.3,5,5S85.6,220.8,82.9,220.8z"/>
	</g>
</g>
</svg>
