<?xml version="1.0" encoding="utf-8"?>
<!-- Generator: Adobe Illustrator 17.1.0, SVG Export Plug-In . SVG Version: 6.00 Build 0)  -->
<!DOCTYPE svg PUBLIC "-//W3C//DTD SVG 1.1//EN" "http://www.w3.org/Graphics/SVG/1.1/DTD/svg11.dtd">
<svg version="1.1" id="Layer_1" xmlns="http://www.w3.org/2000/svg" xmlns:xlink="http://www.w3.org/1999/xlink" x="0px" y="0px"
	 viewBox="0 0 154.5 211.5" enable-background="new 0 0 154.5 211.5" xml:space="preserve">
<g>
	<path fill="#FFFFFF" d="M79.8,16.4c4.5,0,8,3.7,8,8.2v76.4c0,3,2.5,5.5,5.5,5.5s5.5-2.5,5.5-5.5V41.4v-0.3c0-4.5,3.5-8.2,8-8.2
		s8,3.7,8,8.2v0.3v90.1c0,3,2.5,5.5,5.5,5.5s5.5-2.5,5.5-5.5v-30.1c0-4.5,3.5-8.2,8-8.2s8,3.7,8,8.2V137v-0.3
		c0,34.8-27.5,62.9-62.3,62.9s-63.7-26.3-63.7-61.1V57.2v0.3c0-4.5,4.5-8.2,9-8.2s9,3.7,9,8.2V109v0.6c0,3,2,5.5,5,5.5s5-2.5,5-5.5
		V109V35.6c0-4.5,4-8.2,8.5-8.2s8.5,3.7,8.5,8.2v65.4c0,3,2.5,5.5,5.5,5.5s5.5-2.5,5.5-5.5V24.7C71.8,20.1,75.3,16.4,79.8,16.4
		 M87.9,24.4v0.3V24.4 M71.9,24.4v0.3V24.4 M60.9,35.3v0.3V35.3 M43.9,35.3v0.3V35.3 M33.9,57.2v0.3V57.2 M141.9,101.1v0.3V101.1
		 M125.9,101.1v0.3V101.1 M79.9,6.5c-8.4,0-15.5,5.9-17.5,13.8c-2.9-1.8-6.3-2.9-10-2.9c-10.1,0-18.3,8-18.5,18h-0.1v0.2v5.9
		c-3-1.4-5.7-2.1-9-2.1c-10.2,0-18.8,8-19,18H5.8v0.1v80.9c0,19.5,7.8,37.5,22,50.9c13.8,13.1,32.2,20.2,51.8,20.2
		c19.5,0,37.7-7.4,51.3-21.1c13.5-13.6,20.9-32,21-51h0v-36.1v0.1h0.1c-0.2-10-8.2-18.1-18-18.1c-3.3,0-6,0.7-9,2.2V41.4v-0.3
		c0-10-8.1-18.2-18-18.2c-3.3,0-6,0.9-9,2.4v-0.7v-0.2h0.1C97.7,14.4,89.7,6.5,79.9,6.5L79.9,6.5z"/>
</g>
</svg>
